# xmcd
#
# Track frame offsets: 
#        151
#        13445
#        24472
#        37383
#        49671
#        73693
#        90726
#        105613
#        123128
#        142050
#        155292
#
# Disc length: 2350 seconds
#
# Revision: 0
# Processed by: cddbd v1.5PL3 Copyright (c) Steve Scherf et al.
# Submitted via: ExactAudioCopy v0.95a4
#
DISCID=98092c0b
DTITLE=The Loose Gravel Blues Band - Too Loose Blues
DYEAR=2000
DGENRE=Blues
TTITLE0=I Believe To My Soul
TTITLE1=Just A Little Bit
TTITLE2=Early In The Morning
TTITLE3=Night Creeper
TTITLE4=Strange Things Happening
TTITLE5=Lipstick, Powder and Paint
TTITLE6=I Feel So Good
TTITLE7=I'm Gong up to the Country Paint My Mailbox Blue
TTITLE8=I've Got Dreams To Remember
TTITLE9=Toughen Up
TTITLE10=Shake, Rattle And Roll
EXTD=
EXTT0=
EXTT1=
EXTT2=
EXTT3=
EXTT4=
EXTT5=
EXTT6=
EXTT7=
EXTT8=
EXTT9=
EXTT10=
PLAYORDER=
